<?xml version="1.0" encoding="iso-8859-1"?>
<!-- Generator: Adobe Illustrator 19.0.0, SVG Export Plug-In . SVG Version: 6.00 Build 0)  -->
<svg version="1.1" id="Capa_1" xmlns="http://www.w3.org/2000/svg" xmlns:xlink="http://www.w3.org/1999/xlink" x="0px" y="0px"
	 viewBox="0 0 512.001 512.001" style="enable-background:new 0 0 512.001 512.001;" xml:space="preserve">
<g>
	<g>
		<path d="M502,491.999c-5.51,0-10,4.48-10,10.001c0,5.51,4.49,10.001,10,10.001s10-4.49,10-10.001
			C512,496.479,507.51,491.999,502,491.999z"/>
	</g>
</g>
<g>
	<g>
		<path d="M511.744,81.844c-2.412-16.32-13.133-40.038-35.992-57.66C456.823,9.594,422.34-6.037,365.555,2.355
			c-47.193,6.974-92.036,45.451-111.419,77.502C230.116,51.12,180.433,19.972,133,19.972c-58.458,0-133,31.114-133,100.006
			c0,9.433,5.19,14.069,8.284,15.993c9.196,5.719,23.961,3.42,45.14-7.024c5.251-2.59,8.329-7.482,10.434-12.755
			c3.167-7.935,2.8-17.979,13.783-10.794c5.504,3.602,13.821,9.042,25.608,6.323c6.153-1.42,11.195-5.216,15.77-9.395
			c0.928-0.848,12.038-12.402,12.709-11.679c1.206,1.301,10.788,20.201,10.596,20.281c-18.594,7.695-40.034,19.502-57.747,37.216
			c-36.373,36.375-55.606,73.349-57.167,109.894c-1.314,30.759,10.812,54.316,22.599,66.104
			c22.247,22.25,41.764-19.874,47.522-34.562c3.209-8.187,1.156-17.277-0.732-25.517c-0.829-3.616-4.928-14.264-1.109-17.179
			c3.397-2.593,32.813-7.795,33.012-9.582c-5.06,45.373,7.119,74.867,19.122,92.209c12.655,18.285,36.44,39.361,60.192,39.361
			c6.619,0,10.787-3.24,12.852-5.438c7.415-7.892,8.066-22.821,1.991-45.641c-3.652-13.716-18.961-16.578-24.643-27.895
			c-4.81-9.587,13.167-22.115,13.248-33.011c0.042-5.642-11.914-21.199-10.132-24.643c8.18-15.811,24.717-15.916,23.265-37.349
			c-0.246-3.624-2.103-8.923-0.077-12.286c5.374-8.922,11.306-15.234,16.992-20.198c19.702,48.884,25.705,102.074,18.711,154.253
			c-3.923,29.272-11.677,58.191-21.868,85.878c-6.515,19.198-32.251,79.549-42.161,89.459H10c-5.51,0-10,4.48-10,10.001
			C0,507.51,4.49,512,10,512h452c5.51,0,10-4.49,10-10.001c0-5.521-4.49-10.001-10-10.001H299.852
			C320,461.985,330,413.985,336.078,362.792c4.361-36.731,2.147-74.051-4.011-110.557c-4.191-24.844-8.941-48.311-17.686-71.948
			c-1.277-3.452-13.533-41.122-16.694-40.49c8.108-1.621,17.687-2.641,29.448-0.951c7.394,1.063,12.047,8.418,17.464,12.771
			c7.425,5.967,15.351,5.082,24.215,2.654c9.028-2.472,11.33-3.975,14.691,5.434c4.758,13.322,12.402,20.977,27.023,21.801
			c4.158,0.234,10.851-1.248,14.356,1.676c4.685,3.908,2.582,12.818,2.814,18.222c0.314,7.312,0.743,15.499,5.188,21.649
			c9.788,13.542,37.252,43.823,51.414,17.062c7.715-14.583,13.112-40.047,5.117-67.781c-6.62-22.964-25.161-55.974-75.897-82.826
			c-14.719-7.79-30.537-11.453-46.824-14.181c35.972-12.827,74.857,0.409,108.799,13.312c17.485,6.647,25.466,9.682,32.092,4.357
			C510.836,90.385,512.39,86.215,511.744,81.844z M111.411,221.066c-15.426,3.662-28.749,6.826-33.477,16.52
			c-4.771,9.782-2.516,21.12-0.525,31.125c0.858,4.316,2.296,11.54,1.501,13.568c-6.961,17.759-12.781,24.911-15.449,27.006
			c-15.733-16.689-38.418-73.32,35.259-147.001c28.998-29,75.852-44.638,109.493-47.468c-30.677,18.951-65.593,57.39-75.669,99.575
			C129.417,216.786,118.234,219.447,111.411,221.066z M207.329,172.386c-3.775,6.283-3.308,14.099-2.895,20.996
			c0.198,3.311,0.498,8.313-0.169,9.879c-0.69,1.409-4.762,4.43-7.195,6.234c-6.394,4.741-13.64,10.116-15.396,18.868
			c-1.676,8.356,2.707,15.616,6.229,21.45c1.287,2.131,3.439,5.698,3.563,6.923c-0.017,2.263-2.937,6.087-5.513,9.461
			c-4.646,6.085-10.428,13.659-8.728,23.399c1.755,10.055,10.14,17.594,17.539,24.245c3.025,2.72,8.089,7.272,8.77,9.095
			c3.932,14.767,3.742,22.585,3.057,25.67c-11.803-2.653-29.598-12.098-42.321-30.481c-16.341-23.611-20.833-56.758-12.989-95.86
			c7.657-38.174,40.031-72.9,66.052-89.559c1.646,6.217,4.753,11.844,8.932,16.49C220.009,154.924,213.397,162.287,207.329,172.386z
			 M227.272,94.684c-15.553-1.149-35.038,0.961-55.329,6.278c-9.49,2.486-10.948,3.025-15.315-6.345
			c-4.604-9.879-9.365-20.095-18.466-23.129c-12.602-4.197-21.948,5.294-28.774,12.228c-7.233,7.349-11.498,11.027-20.797,4.944
			c-5.659-3.702-14.208-9.297-25.955-5.101C51.49,87.54,48.49,97.992,46.506,104.91c-2.201,7.673-7.393,9.037-14.63,11.549
			c-3.726,1.293-7.857,2.714-11.865,2.595c0.281-12.094,6.04-31.401,21.562-47.491C61.506,50.897,93.122,39.973,133,39.973
			c39.695,0,80.931,25.9,102.034,48.456C232.19,90.187,229.586,92.293,227.272,94.684z M236,122.478
			c0-11.029,8.972-20.001,20-20.001s20,8.972,20,20.001c0,11.029-8.972,20.001-20,20.001S236,133.507,236,122.478z M262.786,161.88
			c7.105-1.221,13.571-4.313,18.874-8.763c4.16,9.735,7.98,19.456,11.416,29.12l-22.38,3.306
			C268.388,177.615,265.743,169.719,262.786,161.88z M277.173,491.999h-58.08c5.167-9.436,10.031-18.799,14.548-28.002h57.471
			C287.012,473.341,282.396,482.612,277.173,491.999z M299.065,443.996h-56.042c4.208-9.414,8.102-18.778,11.64-28.002h52.844
			C305.152,425.51,302.356,434.779,299.065,443.996z M311.751,395.993h-49.894c2.707-8.066,5.162-16.089,7.344-24.001h45.941
			C314.259,380.278,313.136,388.231,311.751,395.993z M316.772,351.991h-42.579c1.794-8.043,3.326-16.065,4.583-24.001h38.818
			C317.487,336.42,317.214,344.373,316.772,351.991z M316.237,285.845c0.654,7.434,1.082,14.837,1.28,22.144h-36.138
			c0.681-6.708,1.167-13.401,1.456-20.034L316.237,285.845z M313.957,265.948l-30.857,1.949c-0.115-6.668-0.434-13.305-0.954-19.867
			l28.259-3.14C311.781,251.908,312.968,258.944,313.957,265.948z M299.462,201.512c2.434,7.923,4.634,15.858,6.583,23.739
			l-26.122,2.903c-1.12-7.746-2.537-15.475-4.237-23.129l0.099-0.015L299.462,201.512z M404.163,107.188
			c35.247,18.653,58.082,43.097,66.035,70.688c6.194,21.48,2.255,41.239-3.154,52.061c-2.822-1.418-8.991-6.206-17.907-18.538
			c-1.024-1.745-1.348-8.547-1.542-12.611c-0.473-9.937-1.009-21.2-7.687-28.92c-6.469-7.477-15.993-7.788-23.645-8.038
			c-4.243-0.138-9.051-0.295-10.759-1.664c-0.927-0.919-2.327-4.839-3.164-7.183c-3.817-10.684-10.388-20.767-22.865-20.767
			c-6.676,0-17.213,5.851-23.53,4.002c-10.206-2.988-14.105-15.459-25.866-17.158c-13.698-1.979-24.936-0.989-34.182,0.71
			c-0.42-6.252-2.283-12.112-5.258-17.255C319.766,92.276,368.812,88.478,404.163,107.188z M482.603,69.943
			C456.711,60.1,413.376,43.621,372.26,52.951c-19.273,4.372-35.285,12.821-49.029,22.157c-18.354,1.935-35.259,6.324-48.259,12.164
			c-0.466-0.252-0.939-0.492-1.415-0.726c17.122-25.645,54.851-58.484,94.922-64.405c9.638-1.424,18.879-2.131,27.681-2.131
			c27.222,0,50.197,6.769,67.382,20.016c12.551,9.674,20.485,21.664,24.771,32.073C486.393,71.384,484.435,70.64,482.603,69.943z"/>
	</g>
</g>
<g>
</g>
<g>
</g>
<g>
</g>
<g>
</g>
<g>
</g>
<g>
</g>
<g>
</g>
<g>
</g>
<g>
</g>
<g>
</g>
<g>
</g>
<g>
</g>
<g>
</g>
<g>
</g>
<g>
</g>
</svg>
